HIERARCHY
ROOT hip
{
  OFFSET 0 90.174 2.4664
  CHANNELS 6 Xposition Yposition Zposition Zrotation Xrotation Yrotation
  JOINT abdomen
  {
    OFFSET 0 -1.186 -1.5018
    CHANNELS 6 Xposition Yposition Zposition Zrotation Xrotation Yrotation
    JOINT abdomen2
    {
      OFFSET 0 9.964 0.2134
      CHANNELS 6 Xposition Yposition Zposition Zrotation Xrotation Yrotation
      JOINT chest
      {
        OFFSET 0 13.134 -3.2573
        CHANNELS 6 Xposition Yposition Zposition Zrotation Xrotation Yrotation
        JOINT neck
        {
          OFFSET 0 20.686 -1.6905
          CHANNELS 6 Xposition Yposition Zposition Zrotation Xrotation Yrotation
          JOINT head
          {
            OFFSET 0 7.238 -0.1237
            CHANNELS 6 Xposition Yposition Zposition Zrotation Xrotation Yrotation
            End Site
            {
              OFFSET 0 0 0
            }
          }
        }
        JOINT lCollar
        {
          OFFSET 1.7069 20.075 5.0056
          CHANNELS 6 Xposition Yposition Zposition Zrotation Xrotation Yrotation
          JOINT lShldr
          {
            OFFSET 13.6458 -0.047 -4.849
            CHANNELS 6 Xposition Yposition Zposition Zrotation Xrotation Yrotation
            JOINT lForeArm
            {
              OFFSET 28.3255 -0.9759 2.2888
              CHANNELS 6 Xposition Yposition Zposition Zrotation Xrotation Yrotation
              JOINT lHand
              {
                OFFSET 22.1583 -0.53 10.8316
                CHANNELS 6 Xposition Yposition Zposition Zrotation Xrotation Yrotation
                JOINT lThumb1
                {
                  OFFSET 0.786 0.112 2.5817
                  CHANNELS 6 Xposition Yposition Zposition Zrotation Xrotation Yrotation
                  JOINT lThumb2
                  {
                    OFFSET 0.3601 -0.878 4.2331
                    CHANNELS 6 Xposition Yposition Zposition Zrotation Xrotation Yrotation
                    JOINT lThumb2_End
                    {
                      OFFSET 1.8127 -1.216 2.2227
                      CHANNELS 6 Xposition Yposition Zposition Zrotation Xrotation Yrotation
                      End Site
                      {
                        OFFSET 0.0181 -0.0122 0.0222
                      }
                    }
                  }
                }
                JOINT lCarpal1
                {
                  OFFSET 0.9571 1.114 1.7695
                  CHANNELS 6 Xposition Yposition Zposition Zrotation Xrotation Yrotation
                  JOINT lIndex1
                  {
                    OFFSET 4.1246 0.487 4.1451
                    CHANNELS 6 Xposition Yposition Zposition Zrotation Xrotation Yrotation
                    JOINT lIndex2
                    {
                      OFFSET 3.4052 -1.454 2.7682
                      CHANNELS 6 Xposition Yposition Zposition Zrotation Xrotation Yrotation
                      JOINT lIndex2_End
                      {
                        OFFSET 1.4531 -1.795 1.2713
                        CHANNELS 6 Xposition Yposition Zposition Zrotation Xrotation Yrotation
                        End Site
                        {
                          OFFSET 0.0145 -0.0179 0.0127
                        }
                      }
                    }
                  }
                  JOINT lMid1
                  {
                    OFFSET 5.6954 0.21 2.1184
                    CHANNELS 6 Xposition Yposition Zposition Zrotation Xrotation Yrotation
                    JOINT lMid2
                    {
                      OFFSET 3.9766 -1.54 2.3863
                      CHANNELS 6 Xposition Yposition Zposition Zrotation Xrotation Yrotation
                      JOINT lMid2_End
                      {
                        OFFSET 1.4042 -1.926 1.125
                        CHANNELS 6 Xposition Yposition Zposition Zrotation Xrotation Yrotation
                        End Site
                        {
                          OFFSET 0.014 -0.0193 0.0113
                        }
                      }
                    }
                  }
                }
                JOINT lCarpal2
                {
                  OFFSET 2.0956 0.66 -0.3894
                  CHANNELS 6 Xposition Yposition Zposition Zrotation Xrotation Yrotation
                  JOINT lRing1
                  {
                    OFFSET 5.0395 -0.09 2.4971
                    CHANNELS 6 Xposition Yposition Zposition Zrotation Xrotation Yrotation
                    JOINT lRing2
                    {
                      OFFSET 3.7921 -1.552 1.4806
                      CHANNELS 6 Xposition Yposition Zposition Zrotation Xrotation Yrotation
                      JOINT lRing2_End
                      {
                        OFFSET 1.4655 -1.808 0.9609
                        CHANNELS 6 Xposition Yposition Zposition Zrotation Xrotation Yrotation
                        End Site
                        {
                          OFFSET 0.0147 -0.0181 0.0096
                        }
                      }
                    }
                  }
                  JOINT lPinky1
                  {
                    OFFSET 4.9141 -1.269 0.3591
                    CHANNELS 6 Xposition Yposition Zposition Zrotation Xrotation Yrotation
                    JOINT lPinky2
                    {
                      OFFSET 3.1477 -1.685 0.8462
                      CHANNELS 6 Xposition Yposition Zposition Zrotation Xrotation Yrotation
                      JOINT lPinky2_End
                      {
                        OFFSET 0.8055 -1.585 0.7955
                        CHANNELS 6 Xposition Yposition Zposition Zrotation Xrotation Yrotation
                        End Site
                        {
                          OFFSET 0.0081 -0.0158 0.008
                        }
                      }
                    }
                  }
                }
              }
            }
          }
        }
        JOINT rCollar
        {
          OFFSET -1.7069 20.075 5.0056
          CHANNELS 6 Xposition Yposition Zposition Zrotation Xrotation Yrotation
          JOINT rShldr
          {
            OFFSET -13.6458 -0.047 -4.849
            CHANNELS 6 Xposition Yposition Zposition Zrotation Xrotation Yrotation
            JOINT rForeArm
            {
              OFFSET -28.3255 -0.9759 2.2888
              CHANNELS 6 Xposition Yposition Zposition Zrotation Xrotation Yrotation
              JOINT rHand
              {
                OFFSET -22.1583 -0.53 10.8316
                CHANNELS 6 Xposition Yposition Zposition Zrotation Xrotation Yrotation
                JOINT rThumb1
                {
                  OFFSET -0.786 0.112 2.5817
                  CHANNELS 6 Xposition Yposition Zposition Zrotation Xrotation Yrotation
                  JOINT rThumb2
                  {
                    OFFSET -0.3601 -0.878 4.2331
                    CHANNELS 6 Xposition Yposition Zposition Zrotation Xrotation Yrotation
                    JOINT rThumb2_End
                    {
                      OFFSET -1.8127 -1.216 2.2227
                      CHANNELS 6 Xposition Yposition Zposition Zrotation Xrotation Yrotation
                      End Site
                      {
                        OFFSET -0.0181 -0.0122 0.0222
                      }
                    }
                  }
                }
                JOINT rCarpal1
                {
                  OFFSET -0.9571 1.114 1.7695
                  CHANNELS 6 Xposition Yposition Zposition Zrotation Xrotation Yrotation
                  JOINT rIndex1
                  {
                    OFFSET -4.1246 0.487 4.1451
                    CHANNELS 6 Xposition Yposition Zposition Zrotation Xrotation Yrotation
                    JOINT rIndex2
                    {
                      OFFSET -3.4052 -1.454 2.7682
                      CHANNELS 6 Xposition Yposition Zposition Zrotation Xrotation Yrotation
                      JOINT rIndex2_End
                      {
                        OFFSET -1.4531 -1.795 1.2713
                        CHANNELS 6 Xposition Yposition Zposition Zrotation Xrotation Yrotation
                        End Site
                        {
                          OFFSET -0.0145 -0.018 0.0127
                        }
                      }
                    }
                  }
                  JOINT rMid1
                  {
                    OFFSET -5.6954 0.21 2.1184
                    CHANNELS 6 Xposition Yposition Zposition Zrotation Xrotation Yrotation
                    JOINT rMid2
                    {
                      OFFSET -3.9766 -1.54 2.3863
                      CHANNELS 6 Xposition Yposition Zposition Zrotation Xrotation Yrotation
                      JOINT rMid2_End
                      {
                        OFFSET -1.4042 -1.926 1.125
                        CHANNELS 6 Xposition Yposition Zposition Zrotation Xrotation Yrotation
                        End Site
                        {
                          OFFSET -0.014 -0.0193 0.0113
                        }
                      }
                    }
                  }
                }
                JOINT rCarpal2
                {
                  OFFSET -2.0956 0.66 -0.3894
                  CHANNELS 6 Xposition Yposition Zposition Zrotation Xrotation Yrotation
                  JOINT rRing1
                  {
                    OFFSET -5.0395 -0.09 2.4971
                    CHANNELS 6 Xposition Yposition Zposition Zrotation Xrotation Yrotation
                    JOINT rRing2
                    {
                      OFFSET -3.7921 -1.552 1.4806
                      CHANNELS 6 Xposition Yposition Zposition Zrotation Xrotation Yrotation
                      JOINT rRing2_End
                      {
                        OFFSET -1.4655 -1.808 0.9609
                        CHANNELS 6 Xposition Yposition Zposition Zrotation Xrotation Yrotation
                        End Site
                        {
                          OFFSET -0.0147 -0.0181 0.0096
                        }
                      }
                    }
                  }
                  JOINT rPinky1
                  {
                    OFFSET -4.9141 -1.269 0.3592
                    CHANNELS 6 Xposition Yposition Zposition Zrotation Xrotation Yrotation
                    JOINT rPinky2
                    {
                      OFFSET -3.1477 -1.685 0.8462
                      CHANNELS 6 Xposition Yposition Zposition Zrotation Xrotation Yrotation
                      JOINT rPinky2_End
                      {
                        OFFSET -0.8055 -1.585 0.7955
                        CHANNELS 6 Xposition Yposition Zposition Zrotation Xrotation Yrotation
                        End Site
                        {
                          OFFSET -0.0081 -0.0158 0.008
                        }
                      }
                    }
                  }
                }
              }
            }
          }
        }
      }
    }
  }
  JOINT lThigh
  {
    OFFSET 8.367 -8.2066 0.5982
    CHANNELS 6 Xposition Yposition Zposition Zrotation Xrotation Yrotation
    JOINT lShin
    {
      OFFSET 2.1923 -43.463 -0.4932
      CHANNELS 6 Xposition Yposition Zposition Zrotation Xrotation Yrotation
      JOINT lFoot
      {
        OFFSET 0.7333 -45.8593 -2.6451
        CHANNELS 6 Xposition Yposition Zposition Zrotation Xrotation Yrotation
        End Site
        {
          OFFSET 2.6618 -4.2699 12.3931
        }
      }
    }
  }
  JOINT rThigh
  {
    OFFSET -8.367 -8.2066 0.5982
    CHANNELS 6 Xposition Yposition Zposition Zrotation Xrotation Yrotation
    JOINT rShin
    {
      OFFSET -2.1923 -43.463 -0.4931
      CHANNELS 6 Xposition Yposition Zposition Zrotation Xrotation Yrotation
      JOINT rFoot
      {
        OFFSET -0.7333 -45.8593 -2.6451
        CHANNELS 6 Xposition Yposition Zposition Zrotation Xrotation Yrotation
        End Site
        {
          OFFSET -2.6618 -4.2699 12.3931
        }
      }
    }
  }
}
MOTION
Frames:	4
Frame Time:	0.0333333
0 90.174 2.4664 0 0 -0 0 -1.186 -1.5018 0 0 -0 0 9.964 0.2134 0 0 -0 0 13.134 -3.2573 0 0 -0 0 20.686 -1.6905 0 0 -0 0 7.238 -0.1237 0 0 -0 1.7069 20.075 5.0056 0 0 -0 13.6458 -0.047 -4.849 1.66051 0.0835086 5.75766 28.3255 -0.9759 2.2888 -0.0175111 0.895433 15.7816 22.1583 -0.53 10.8316 7.95139e-016 -1.98785e-016 -0 0.786 0.112 2.5817 5.46658e-016 -3.97569e-016 -0 0.3601 -0.878 4.2331 5.96354e-016 0 -0 1.8127 -1.216 2.2227 3.97569e-016 1.98785e-016 9.54166e-015 0.9571 1.114 1.7695 1.49089e-016 -3.97569e-016 -0 4.1246 0.487 4.1451 6.4605e-016 0 3.18055e-015 3.4052 -1.454 2.7682 5.96354e-016 0 3.18055e-015 1.4531 -1.795 1.2713 8.94531e-016 -1.98785e-016 6.36111e-015 5.6954 0.21 2.1184 6.4605e-016 0 3.18055e-015 3.9766 -1.54 2.3863 5.96354e-016 0 3.18055e-015 1.4042 -1.926 1.125 8.94531e-016 -1.98785e-016 6.36111e-015 2.0956 0.66 -0.3894 1.49089e-016 -3.97569e-016 -0 5.0395 -0.09 2.4971 6.4605e-016 0 3.18055e-015 3.7921 -1.552 1.4806 5.96354e-016 0 3.18055e-015 1.4655 -1.808 0.9609 8.94531e-016 -1.98785e-016 6.36111e-015 4.9141 -1.269 0.3591 6.4605e-016 0 3.18055e-015 3.1477 -1.685 0.8462 5.96354e-016 0 3.18055e-015 0.8055 -1.585 0.7955 8.94531e-016 -1.98785e-016 6.36111e-015 -1.7069 20.075 5.0056 0 0 -0 -13.6458 -0.047 -4.849 -1.4496 0.0636048 -5.0245 -28.3255 -0.9759 2.2888 -1.74811 1.20616 -16.8394 -22.1583 -0.53 10.8316 -1.19271e-015 1.98785e-016 -3.18055e-015 -0.786 0.112 2.5817 -3.97569e-016 1.98785e-016 -3.18055e-015 -0.3601 -0.878 4.2331 -2.98177e-016 1.98785e-016 -3.18055e-015 -1.8127 -1.216 2.2227 -2.98177e-016 3.97569e-016 -0 -0.9571 1.114 1.7695 4.96962e-016 0 -6.36111e-015 -4.1246 0.487 4.1451 -9.93923e-017 3.97569e-016 -0 -3.4052 -1.454 2.7682 -8.94531e-016 5.96354e-016 -0 -1.4531 -1.795 1.2713 -3.97569e-016 3.97569e-016 -0 -5.6954 0.21 2.1184 -9.93923e-017 3.97569e-016 -0 -3.9766 -1.54 2.3863 -8.94531e-016 5.96354e-016 -0 -1.4042 -1.926 1.125 -3.97569e-016 3.97569e-016 -0 -2.0956 0.66 -0.3894 4.96962e-016 0 -6.36111e-015 -5.0395 -0.09 2.4971 -9.93923e-017 3.97569e-016 -0 -3.7921 -1.552 1.4806 -8.94531e-016 5.96354e-016 -0 -1.4655 -1.808 0.9609 -3.97569e-016 3.97569e-016 -0 -4.9141 -1.269 0.3592 -9.93923e-017 3.97569e-016 -0 -3.1477 -1.685 0.8462 -8.94531e-016 5.96354e-016 -0 -0.8055 -1.585 0.7955 -3.97569e-016 3.97569e-016 -0 8.367 -8.2066 0.5982 -4.66115 -1.03232 0.120763 2.1923 -43.463 -0.4932 0.00990601 1.55097 0.177175 0.7333 -45.8593 -2.6451 4.65196 -0.54114 -0.255042 -8.367 -8.2066 0.5982 4.66115 -1.03222 -0.120763 -2.1923 -43.463 -0.4931 -0.00990459 1.5509 -0.177176 -0.7333 -45.8593 -2.6451 -4.65196 -0.541171 0.255041 
1.73624 40.4478 13.1066 0 40.9966 -0 0 -1.186 -1.5018 0.264995 -1.92018 -0.340673 0 9.964 0.2134 0.518994 -3.84185 -0.673021 4.44089e-016 13.134 -3.2573 0.518994 -3.84186 -0.673021 0 20.686 -1.6905 -1.0255e-005 -0.186925 -3.60513e-006 0 7.238 -0.1237 2.47883e-007 -0.428402 -1.3345e-008 1.7069 20.075 5.0056 8.83068 12.1616 27.8472 13.6458 -0.047 -4.849 -70.5561 31.0603 -18.487 28.3255 -0.9759 2.2888 -19.9901 17.0022 -32.8095 22.1583 -0.53 10.8316 4.92913 -17.1234 5.46269 0.786 0.112 2.5817 1.62718e-007 6.55733e-007 -1.78203e-006 0.3601 -0.878 4.2331 1.74983e-007 1.2374e-006 -1.16333e-006 1.8127 -1.216 2.2227 9.97559e-008 1.20037e-006 3.70337e-008 0.9571 1.114 1.7695 0 0 -1.59028e-015 4.1246 0.487 4.1451 1.62718e-007 6.55733e-007 -1.78203e-006 3.4052 -1.454 2.7682 1.74983e-007 1.2374e-006 -1.16333e-006 1.4531 -1.795 1.2713 9.97559e-008 1.20037e-006 3.70337e-008 5.6954 0.21 2.1184 1.62718e-007 6.55733e-007 -1.78203e-006 3.9766 -1.54 2.3863 1.74983e-007 1.2374e-006 -1.16333e-006 1.4042 -1.926 1.125 9.97559e-008 1.20037e-006 3.70337e-008 2.0956 0.66 -0.3894 0 0 -1.59028e-015 5.0395 -0.09 2.4971 1.62718e-007 6.55733e-007 -1.78203e-006 3.7921 -1.552 1.4806 1.74983e-007 1.2374e-006 -1.16333e-006 1.4655 -1.808 0.9609 9.97559e-008 1.20037e-006 3.70337e-008 4.9141 -1.269 0.3591 1.62718e-007 6.55733e-007 -1.78203e-006 3.1477 -1.685 0.8462 1.74983e-007 1.2374e-006 -1.16333e-006 0.8055 -1.585 0.7955 9.97559e-008 1.20037e-006 3.70337e-008 -1.7069 20.075 5.0056 -9.77535 12.0512 -28.494 -13.6458 -0.047 -4.849 70.7531 31.1371 19.0894 -28.3255 -0.9759 2.2888 18.7132 15.8065 32.2699 -22.1583 -0.53 10.8316 -4.42427 -16.4417 -6.11757 -0.786 0.112 2.5817 -5.12479e-006 3.75467e-007 1.07154e-006 -0.3601 -0.878 4.2331 1.98785e-016 3.97569e-016 3.18055e-015 -1.8127 -1.216 2.2227 -9.93923e-017 0 3.18055e-015 -0.9571 1.114 1.7695 5.96354e-016 -7.95139e-016 -3.18055e-015 -4.1246 0.487 4.1451 -5.12479e-006 3.75467e-007 1.07154e-006 -3.4052 -1.454 2.7682 3.97569e-016 0 3.18055e-015 -1.4531 -1.795 1.2713 4.96962e-016 3.97569e-016 3.18055e-015 -5.6954 0.21 2.1184 -5.12479e-006 3.75467e-007 1.07154e-006 -3.9766 -1.54 2.3863 3.97569e-016 0 3.18055e-015 -1.4042 -1.926 1.125 4.96962e-016 3.97569e-016 3.18055e-015 -2.0956 0.66 -0.3894 5.96354e-016 -7.95139e-016 -3.18055e-015 -5.0395 -0.09 2.4971 -5.12479e-006 3.75467e-007 1.07154e-006 -3.7921 -1.552 1.4806 3.97569e-016 0 3.18055e-015 -1.4655 -1.808 0.9609 4.96962e-016 3.97569e-016 3.18055e-015 -4.9141 -1.269 0.3592 -5.12479e-006 3.75467e-007 1.07154e-006 -3.1477 -1.685 0.8462 3.97569e-016 0 3.18055e-015 -0.8055 -1.585 0.7955 4.96962e-016 3.97569e-016 3.18055e-015 8.367 -8.2066 0.5982 24.7347 -39.9805 20.0736 2.1923 -43.463 -0.4932 24.4634 86.4987 -19.7014 0.7333 -45.8593 -2.6451 -35.9792 53.5374 40.9583 -8.367 -8.2066 0.5982 -24.759 -39.9789 -20.0973 -2.1923 -43.463 -0.4931 -24.7615 86.4913 20.0048 -0.7333 -45.8593 -2.6451 35.9622 53.5585 -40.9457 
1.73624 40.468 13.4608 0 39.2383 -0 0 -1.186 -1.5018 0.261671 -1.44717 -0.344089 0 9.964 0.2134 0.514887 -2.89587 -0.681889 0 13.134 -3.2573 0.514887 -2.89588 -0.681888 0 20.686 -1.6905 -0.0390689 -0.153047 0.00199722 0 7.238 -0.1237 -2.3256e-007 -0.846709 -2.51895e-008 1.7069 20.075 5.0056 8.7499 11.426 27.7162 13.6458 -0.047 -4.849 -70.5561 31.0603 -18.487 28.3255 -0.9759 2.2888 -19.79 16.7564 -32.2684 22.1583 -0.53 10.8316 4.68408 -17.2331 5.12338 0.786 0.112 2.5817 5.96354e-016 -1.59028e-015 -0 0.3601 -0.878 4.2331 1.98785e-016 -1.59028e-015 1.59028e-015 1.8127 -1.216 2.2227 1.39149e-015 -1.59028e-015 -0 0.9571 1.114 1.7695 -1.98785e-016 0 -0 4.1246 0.487 4.1451 9.93923e-016 -2.38542e-015 6.36111e-015 3.4052 -1.454 2.7682 1.78906e-015 -7.95139e-016 -0 1.4531 -1.795 1.2713 1.98785e-016 -7.95139e-016 -1.59028e-015 5.6954 0.21 2.1184 9.93923e-016 -2.38542e-015 6.36111e-015 3.9766 -1.54 2.3863 1.78906e-015 -7.95139e-016 -0 1.4042 -1.926 1.125 1.98785e-016 -7.95139e-016 -1.59028e-015 2.0956 0.66 -0.3894 -1.98785e-016 0 -0 5.0395 -0.09 2.4971 9.93923e-016 -2.38542e-015 6.36111e-015 3.7921 -1.552 1.4806 1.78906e-015 -7.95139e-016 -0 1.4655 -1.808 0.9609 1.98785e-016 -7.95139e-016 -1.59028e-015 4.9141 -1.269 0.3591 9.93923e-016 -2.38542e-015 6.36111e-015 3.1477 -1.685 0.8462 1.78906e-015 -7.95139e-016 -0 0.8055 -1.585 0.7955 1.98785e-016 -7.95139e-016 -1.59028e-015 -1.7069 20.075 5.0056 -9.67834 11.322 -28.3555 -13.6458 -0.047 -4.849 70.7531 31.1371 19.0894 -28.3255 -0.9759 2.2888 18.5047 15.5774 31.732 -22.1583 -0.53 10.8316 -4.20163 -16.5771 -5.78199 -0.786 0.112 2.5817 7.07382e-008 8.88088e-007 -2.36048e-007 -0.3601 -0.878 4.2331 -3.97569e-016 7.95139e-016 -3.18055e-015 -1.8127 -1.216 2.2227 -1.98785e-016 1.19271e-015 -4.77083e-015 -0.9571 1.114 1.7695 -3.97569e-016 0 3.18055e-015 -4.1246 0.487 4.1451 7.07382e-008 8.88088e-007 -2.36048e-007 -3.4052 -1.454 2.7682 -3.97569e-016 1.19271e-015 -4.77083e-015 -1.4531 -1.795 1.2713 -2.98177e-016 7.95139e-016 -4.77083e-015 -5.6954 0.21 2.1184 7.07382e-008 8.88088e-007 -2.36048e-007 -3.9766 -1.54 2.3863 -3.97569e-016 1.19271e-015 -4.77083e-015 -1.4042 -1.926 1.125 -2.98177e-016 7.95139e-016 -4.77083e-015 -2.0956 0.66 -0.3894 -3.97569e-016 0 3.18055e-015 -5.0395 -0.09 2.4971 7.07382e-008 8.88088e-007 -2.36048e-007 -3.7921 -1.552 1.4806 -3.97569e-016 1.19271e-015 -4.77083e-015 -1.4655 -1.808 0.9609 -2.98177e-016 7.95139e-016 -4.77083e-015 -4.9141 -1.269 0.3592 7.07382e-008 8.88088e-007 -2.36048e-007 -3.1477 -1.685 0.8462 -3.97569e-016 1.19271e-015 -4.77083e-015 -0.8055 -1.585 0.7955 -2.98177e-016 7.95139e-016 -4.77083e-015 8.367 -8.2066 0.5982 24.4725 -37.6197 19.4884 2.1923 -43.463 -0.4932 20.1427 85.9149 -15.429 0.7333 -45.8593 -2.6451 -35.2938 53.6832 40.3809 -8.367 -8.2066 0.5982 -24.4954 -37.6174 -19.5116 -2.1923 -43.463 -0.4931 -20.4233 85.9089 15.7151 -0.7333 -45.8593 -2.6451 35.2766 53.7022 -40.3684 
1.73609 40.4829 13.808 0 37.4732 -0 0 -1.186 -1.5018 0.258323 -0.972495 -0.34741 2.22045e-016 9.964 0.2134 0.510853 -1.94655 -0.690579 0 13.134 -3.2573 0.510853 -1.94656 -0.690579 0 20.686 -1.6905 -0.078117 -0.1181 0.00400624 0 7.238 -0.1237 1.69144e-007 -1.26552 9.99602e-008 1.7069 20.075 5.0056 8.66757 10.69 27.5844 13.6458 -0.047 -4.849 -70.5561 31.0603 -18.487 28.3255 -0.9759 2.2888 -19.5875 16.5124 -31.727 22.1583 -0.53 10.8316 4.43814 -17.3414 4.78331 0.786 0.112 2.5817 -1.98785e-016 1.59028e-015 1.59028e-015 0.3601 -0.878 4.2331 -9.93923e-016 0 1.59028e-015 1.8127 -1.216 2.2227 1.78906e-015 0 -1.59028e-015 0.9571 1.114 1.7695 -5.96354e-016 1.59028e-015 1.59028e-015 4.1246 0.487 4.1451 -1.19271e-015 0 6.36111e-015 3.4052 -1.454 2.7682 -1.98785e-016 7.95139e-016 -0 1.4531 -1.795 1.2713 3.97569e-016 -7.95139e-016 -0 5.6954 0.21 2.1184 -1.19271e-015 0 6.36111e-015 3.9766 -1.54 2.3863 -1.98785e-016 7.95139e-016 -0 1.4042 -1.926 1.125 3.97569e-016 -7.95139e-016 -0 2.0956 0.66 -0.3894 -5.96354e-016 1.59028e-015 1.59028e-015 5.0395 -0.09 2.4971 -1.19271e-015 0 6.36111e-015 3.7921 -1.552 1.4806 -1.98785e-016 7.95139e-016 -0 1.4655 -1.808 0.9609 3.97569e-016 -7.95139e-016 -0 4.9141 -1.269 0.3591 -1.19271e-015 0 6.36111e-015 3.1477 -1.685 0.8462 -1.98785e-016 7.95139e-016 -0 0.8055 -1.585 0.7955 3.97569e-016 -7.95139e-016 -0 -1.7069 20.075 5.0056 -9.57969 10.5925 -28.216 -13.6458 -0.047 -4.849 70.7531 31.1371 19.0894 -28.3255 -0.9759 2.2888 18.2942 15.35 31.1935 -22.1583 -0.53 10.8316 -3.97799 -16.7112 -5.44558 -0.786 0.112 2.5817 7.95139e-016 3.97569e-016 -3.18055e-015 -0.3601 -0.878 4.2331 3.50041e-008 -5.92493e-007 6.09747e-007 -1.8127 -1.216 2.2227 3.50041e-008 -5.92493e-007 6.09747e-007 -0.9571 1.114 1.7695 2.98177e-016 0 -1.59028e-015 -4.1246 0.487 4.1451 -2.98177e-016 7.95139e-016 6.36111e-015 -3.4052 -1.454 2.7682 3.50041e-008 -5.92493e-007 6.09747e-007 -1.4531 -1.795 1.2713 3.50041e-008 -5.92493e-007 6.09747e-007 -5.6954 0.21 2.1184 -2.98177e-016 7.95139e-016 6.36111e-015 -3.9766 -1.54 2.3863 3.50041e-008 -5.92493e-007 6.09747e-007 -1.4042 -1.926 1.125 3.50041e-008 -5.92493e-007 6.09747e-007 -2.0956 0.66 -0.3894 2.98177e-016 0 -1.59028e-015 -5.0395 -0.09 2.4971 -2.98177e-016 7.95139e-016 6.36111e-015 -3.7921 -1.552 1.4806 3.50041e-008 -5.92493e-007 6.09747e-007 -1.4655 -1.808 0.9609 3.50041e-008 -5.92493e-007 6.09747e-007 -4.9141 -1.269 0.3592 -2.98177e-016 7.95139e-016 6.36111e-015 -3.1477 -1.685 0.8462 3.50041e-008 -5.92493e-007 6.09747e-007 -0.8055 -1.585 0.7955 3.50041e-008 -5.92493e-007 6.09747e-007 8.367 -8.2066 0.5982 24.247 -35.2448 18.9301 2.1923 -43.463 -0.4932 16.9374 85.3201 -12.273 0.7333 -45.8593 -2.6451 -34.6044 53.8227 39.7974 -8.367 -8.2066 0.5982 -24.2689 -35.2412 -18.9534 -2.1923 -43.463 -0.4931 -17.2 85.3149 12.5419 -0.7333 -45.8593 -2.6451 34.5868 53.8396 -39.785 
